<svg xmlns="http://www.w3.org/2000/svg" viewbox="0 0 84.4102 95.1565"><g><g><path d="M27.7222,78.2721l-12.04-7.3626-.3369-.2056a8.8405,8.8405,0,0,1-1.2319-.909,1.1564,1.1564,0,0,0-1.7482.2641C8.4844,76.3809,4.8376,85.6254.1592,93.4908a1.11,1.11,0,0,0,1.1172,1.6659A54.097,54.097,0,0,0,11.71,92.6081c8.66-3.1121,13.9364-7.9686,16.7148-12.5731a1.1653,1.1653,0,0,0-.4161-1.5946l-.03-.0168q-.1293-.0732-.2566-.1512Z" transform="translate(-0.0027 -0.0123)"></path><path d="M26.1255,69.3421A2.2725,2.2725,0,1,1,28.398,67.07h0a2.2724,2.2724,0,0,1-2.2723,2.2725Zm4.344,6.0169a4.809,4.809,0,0,0,4.2844-8.5709l-2.6167-1.6-7.2038-4.4034-2.5644-1.57a4.8,4.8,0,0,0-3.6537-.5681l-.0016.0018a4.7828,4.7828,0,0,0-2.4945,1.5243,4.9492,4.9492,0,0,0-.4632.6363,4.8124,4.8124,0,0,0,.8549,6.0553v.0017a4.9148,4.9148,0,0,0,.7412.5561L29.73,74.9919A4.6042,4.6042,0,0,0,30.4695,75.359Z" transform="translate(-0.0027 -0.0123)"></path><path d="M72.7059,88.5872a54.0971,54.0971,0,0,0,10.4334,2.5489A1.11,1.11,0,0,0,84.2565,89.47c-4.6784-7.8653-8.3252-17.11-12.2058-23.4316a1.1565,1.1565,0,0,0-1.7483-.2641,8.84,8.84,0,0,1-1.2319.909l-.3369.2056-12.04,7.3626q-.1274.0781-.2566.1512a1.1653,1.1653,0,0,0-.4625,1.5818l.0168.03c2.7784,4.6044,8.0548,9.461,16.7148,12.5731Z" transform="translate(-0.0027 -0.0123)"></path><path d="M36.0856,34.6838a.1747.1747,0,0,0,.2982,0l4.7439-7.7585a.1745.1745,0,0,0,0-.1823L26.0049,2.0081A4.222,4.222,0,0,0,18.8011,6.413Z" transform="translate(-0.0027 -0.0123)"></path><path d="M50.18,57.7381a.1749.1749,0,0,0,.24.0579l6.9039-4.2227a.1749.1749,0,0,0,.0579-.24L50.788,42.5451a.1749.1749,0,0,0-.2984,0l-4.7438,7.7585a.1745.1745,0,0,0,0,.1823Z" transform="translate(-0.0027 -0.0123)"></path><path d="M58.29,60.7765a2.2725,2.2725,0,1,1-2.2725,2.2725h0A2.2724,2.2724,0,0,1,58.29,60.7765ZM48.0744,69.3753a4.8112,4.8112,0,0,0,5.8716,1.9628,4.605,4.605,0,0,0,.7394-.3671l12.3782-7.569a4.9251,4.9251,0,0,0,.7414-.5561v-.0017a4.8161,4.8161,0,0,0,1.4107-4.7408,4.8709,4.8709,0,0,0-.5556-1.3143,4.9653,4.9653,0,0,0-.4634-.6363,4.7827,4.7827,0,0,0-2.4948-1.5247L65.7,54.6267a4.7993,4.7993,0,0,0-3.6535.5681l-2.5644,1.57-7.2038,4.4033L51.165,61.85l-1.4963.9142a4.8024,4.8024,0,0,0-1.6009,6.6l.0067.011Z" transform="translate(-0.0027 -0.0123)"></path><path d="M48.3856,38.6143,65.6145,10.4335a4.2221,4.2221,0,0,0-7.2039-4.4054h0L43.4368,30.5207l-4.9473,8.0936L26.9417,57.5025l7.2023,4.405,9.2928-15.2,4.9488-8.0936Z" transform="translate(-0.0027 -0.0123)"></path></g></g></svg>