<svg xmlns="http://www.w3.org/2000/svg" width="96.1116" height="55.978" viewBox="0 0 96.1116 55.978"><path d="M.2446,43.5868a5.2034,5.2034,0,0,1,.9011-1.8187c1.6351-2.1292,4.5357-2.8558,7.0428-3.3267,3.2185-.6045,6.399-1.3958,9.5852-2.1479a1.4219,1.4219,0,0,1,1.1693.0654c.7042.5209.2561,1.8193-.0275,2.4417a43.818,43.818,0,0,1-2.8124,4.6251,14.3281,14.3281,0,0,1-3.6335,4.052c-2.9433,2.1783-8.0236,3.4362-10.9932.6414A4.5212,4.5212,0,0,1,.2446,43.5868Z" transform="translate(-0.0378 -0.022)"></path><path d="M76.1555,20.8573a1.5839,1.5839,0,0,1-.6348-.6214,1.3972,1.3972,0,0,1,.2606-1.5126,17.0263,17.0263,0,0,1,3.7039-2.7242q2.89-1.978,5.9413-3.704a15.9771,15.9771,0,0,1,5.6125-2.1963c5.0377-.6506,6.6548,5.4869,3.477,8.6766a9.6555,9.6555,0,0,1-5.2952,2.3254,31.7592,31.7592,0,0,1-6.7811.4784c-1.9333-.0452-4.0495.2217-5.885-.5281A3.196,3.196,0,0,1,76.1555,20.8573Z" transform="translate(-0.0378 -0.022)"></path><path d="M84.7082,4.9287a8.077,8.077,0,0,1-.4463,2.7082,16.14,16.14,0,0,1-4.8374,6.4464c-.5679.5048-1.1526.99-1.7458,1.4652-.9069.7259-2.3422.8909-2.6719-.5079A4.25,4.25,0,0,1,74.954,13.84c.2-3.7768.248-7.86,2.0171-11.3111A4.0426,4.0426,0,0,1,82.5.6837,4.7065,4.7065,0,0,1,84.7082,4.9287Z" transform="translate(-0.0378 -0.022)"></path><path d="M8.8093,35.6595c-2.6925-.0825-6.8062-1.07-8.2842-3.6141A3.7152,3.7152,0,0,1,.342,28.7342c.91-2.0607,3.6472-2.7784,5.7019-2.4581A7.479,7.479,0,0,1,10,28.5253a28.4364,28.4364,0,0,0,3.779,3.0345c1.0247.69,2.3162,1.9808.941,3.0465a6.374,6.374,0,0,1-2.7291.8026A15.7842,15.7842,0,0,1,8.8093,35.6595Z" transform="translate(-0.0378 -0.022)"></path><path d="M85.5239,30.5251a11.42,11.42,0,0,1-6.0894-2.02c-.95-.5892-1.8544-1.2476-2.7465-1.92-.6759-.5094-1.9271-1.1369-1.7951-2.1515.08-.6114.65-.8823,1.1876-1.0264a12.6917,12.6917,0,0,1,4.8729.0652c.3652.0506.7289.11,1.0935.1647,1.2653.1892,2.5279.414,3.7753.6976a6.7734,6.7734,0,0,1,3.1063,1.0639c1.94,1.697.063,4.3022-1.8762,4.8944A5.5306,5.5306,0,0,1,85.5239,30.5251Z" transform="translate(-0.0378 -0.022)"></path><path d="M13.9667,52.8063c-.0732-3.0838,2.8482-6.3266,4.9883-8.2638.4961-.4491,1.6072-1.426,2.3425-.9692,1.0967.6817.221,3.3592.0656,4.3433-.39,2.469-1.02,7.1754-3.9557,8.0012a2.5949,2.5949,0,0,1-2.4316-.6658,3.48,3.48,0,0,1-1.0065-2.3686Z" transform="translate(-0.0378 -0.022)"></path><path d="M15.21,15.899A3.0035,3.0035,0,0,1,12.8241,14.72L6.13,5.9665a3.0036,3.0036,0,1,1,4.7719-3.6491L15.1868,7.92l4.829-6.4387a3.0036,3.0036,0,0,1,4.8058,3.6043l-7.2087,9.6116a3.0037,3.0037,0,0,1-2.3888,1.2014Z" transform="translate(-0.0378 -0.022)"></path><path d="M15.2954,28.7716a3.0035,3.0035,0,0,1-3.0031-2.9836l-.0858-12.8726A3.0036,3.0036,0,0,1,15.19,9.8918h.02a3.0035,3.0035,0,0,1,3.0031,2.9836l.0858,12.8726a3.0036,3.0036,0,0,1-2.9835,3.0236Z" transform="translate(-0.0378 -0.022)"></path><path d="M34.7673,25.79a7.51,7.51,0,0,1-2.1268-.3164c-1.7929-.5281-4.2059-1.9727-5.52-5.8556A23.7014,23.7014,0,0,1,26.1145,12.01a54.2787,54.2787,0,0,1,1.0017-9.5971,3.0036,3.0036,0,0,1,5.881,1.225h0a48.8117,48.8117,0,0,0-.8759,8.4818c-.0151,4.2756.8343,7.1846,2.2166,7.5918a.9659.9659,0,0,0,1.0375-.1784c.4658-.3645,2.0745-2.0133,3.2188-7.927a46.9294,46.9294,0,0,0,.8377-7.5307,3.0039,3.0039,0,0,1,5.8411-1.2836c.13.4024.2637.8185.07,3.49-.0888,1.2223-.2727,3.1388-.6441,5.3276-.9541,5.6226-2.5553,9.62-4.7592,11.88A7.137,7.137,0,0,1,34.7673,25.79ZM39.5539,4.63l.0014.0042Zm-.001-.0034.0007.0023Z" transform="translate(-0.0378 -0.022)"></path><path d="M47.9064,25.94a3.0058,3.0058,0,0,1-2.824-4.027l7.2086-19.91a3.0037,3.0037,0,0,1,5.7434.3149l2.2871,9.4343L65.8659,1.588a3.0037,3.0037,0,0,1,5.6363,1.279l1.03,19.3948a3.0036,3.0036,0,0,1-5.9989.3185l-.468-8.8127-4.1938,7.6889a3.0037,3.0037,0,0,1-5.556-.7306l-1.77-7.3024-3.8144,10.535A3.0049,3.0049,0,0,1,47.9064,25.94Z" transform="translate(-0.0378 -0.022)"></path><path d="M28.6838,42.9315q-.1135,0-.2277-.0085a3.0039,3.0039,0,0,1-2.4242-1.5838L20.368,30.6978a3.0036,3.0036,0,1,1,5.3029-2.8225l3.4371,6.4575,4.2043-5.64a3.0036,3.0036,0,0,1,4.8163,3.59l-7.037,9.44A3.0037,3.0037,0,0,1,28.6838,42.9315Z" transform="translate(-0.0378 -0.022)"></path><path d="M28.6834,54.2594A3.0036,3.0036,0,0,1,25.68,51.2558V39.9279a3.0036,3.0036,0,0,1,6.0072,0V51.2558A3.0036,3.0036,0,0,1,28.6834,54.2594Z" transform="translate(-0.0378 -0.022)"></path><path d="M47.292,54.216q-.18,0-.361-.0092a5.9734,5.9734,0,0,1-4.3427-2.2279c-1.9964-2.3791-2.961-6.6726-2.9491-13.1261a76.2372,76.2372,0,0,1,.491-8.3193,3.0036,3.0036,0,0,1,5.9616.739h0a70.655,70.655,0,0,0-.44,8.4589c.0965,6.7774,1.4227,8.2864,1.627,8.4777a1.1327,1.1327,0,0,0,.8232-.3974c2.6506-2.453,4.0589-11.7126,4.2123-17.5043a3.0042,3.0042,0,0,1,3.0011-2.9247c.0266,0,.0531,0,.08.001a3.0031,3.0031,0,0,1,2.9243,3.0791,71.862,71.862,0,0,1-.83,8.55c-1.0461,6.5486-2.7814,10.8682-5.3051,13.2055A7.1167,7.1167,0,0,1,47.292,54.216Z" transform="translate(-0.0378 -0.022)"></path><path d="M83.4318,55.8043A3.0036,3.0036,0,0,1,80.44,53.0266L79.6915,43.11,74.7249,50.081a3.0037,3.0037,0,0,1-5.3869-1.1316L67.6193,40.683,62.3177,52.4864a3.0036,3.0036,0,0,1-5.48-2.4612l9.0967-20.2529a3.0037,3.0037,0,0,1,5.6807.6192L73.82,40.9979l5.7954-8.1337a3.0036,3.0036,0,0,1,5.4412,1.5169L86.43,52.5744a3.0036,3.0036,0,0,1-2.769,3.2212C83.5842,55.8014,83.5076,55.8043,83.4318,55.8043Z" transform="translate(-0.0378 -0.022)"></path></svg>