<svg xmlns="http://www.w3.org/2000/svg" width="55.6859" height="68" viewBox="0 0 55.6859 68"><path d="M55.7966,18.0342c-.6243,7.6968-4.4229,36.0329-5.2383,43.4834-.5461,4.9813-3.5589,6.9-9.503,6.4078-13.53-1.1177-25.773-2.9058-30.7872-3.6684C4.2424,63.3411-.3336,58.7387.1993,54.1585a4.23,4.23,0,0,1,.0964-.48L6.589,0S27.6343,2.0937,40.4442,3.37c3.1693.3154,6.538,2.3556,6.1294,7.39-.6251,7.6968-3.7376,36.1367-4.4254,42.7-.3764,3.5869-2.8135,6.0224-7.3814,5.57-9.176-.9085-21.8253-2.6867-29.0008-3.7343.6416,2.6142,3.1776,3.87,8.4068,4.5407,4.6963.6012,31.2081,3.381,31.2081,3.381L50.88,18.1355l-1.3639-3.8884.6441-3.9592a6.0357,6.0357,0,0,0,.8945.3163C53.8438,11.2779,56.206,13.0018,55.7966,18.0342ZM34.8773,49.1657s-.495-5.2169-.6688-8.51,5.69-8.6827,6.3831-12.4442c.4909-2.6669-.0041-7.2875-1.9479-7.4555-1.5155,14.1606-6.6656,10.7393-8.1679,20.5182-.2619,2.4124-.8788,7.9925-.8788,7.9925Zm-6.178-11.7326c.9233-5.5438,4.66-4.7746,6.6879-13.24C39.5819,6.678,14.0049,2.8918,14.523,22.4167c.252,9.4931,3.99,7.3245,4.7532,16.6958C19.6822,44.1028,27.3551,45.5055,28.6993,37.4331ZM11.0959,49.4613l5.6353-2.3284-.3344-8.7576c-1.2692-6.6632-4.2985-6.8748-4.54-15.9809a26.3465,26.3465,0,0,1,1.0707-6.0388,3.24,3.24,0,0,0-2.7295,1.6349,21.9962,21.9962,0,0,0,1.4232,16.87C13.8855,39.16,11.0959,49.4613,11.0959,49.4613Zm7.579-30.0023c1.9569-.5757,2.4824,4.34.4324,5.3033S16.7179,20.0348,18.6749,19.459Zm6.83,12.7316c-.6976,7.6943-3.4452,6.1706-4.5646.6507C20.0545,28.4662,25.8956,27.8913,25.5052,32.1907Zm2.5812-11.6272c2.3515.4793,1.9339,5.753-.887,5.1674S25.735,20.085,28.0865,20.5635Z" transform="translate(-0.157)"></path></svg>