<svg xmlns="http://www.w3.org/2000/svg" width="89.5796" height="46.4504" viewBox="0 0 89.5796 46.4504"><path d="M64.2122,39.48c-3.85-3.227-16.3934-2.3088-18.4869,6.97L44.3,46.1926C42.7156,38.106,29.8838,35.8006,25.4891,39.48,25.6015,25.7027,9.32,19.7034.2725,30.1338-2.135,13.52,11.71,0,29.8852,0l.552.9655L27.8191,3.1008a12.0637,12.0637,0,0,0,8.8286,13.6533l.92-10.3283,4.0629,3.862,6.4855.4539L51.88,6.4176l.8393,10.43c11.1628-3.3538,9.1715-13.8768,9.1715-13.8768L59.49.99l.419-.9346C78.1206.0555,91.1314,13.57,89.43,30.1324,80.45,19.0814,63.3063,26.0415,64.2122,39.48Z"></path></svg>