<svg xmlns="http://www.w3.org/2000/svg" width="85.5929" height="76" viewBox="0 0 85.5929 76"><path d="M37.98,10.1082l2.1678,6.33,5.4656-.821,2.0824-5.4541c2.81-.6848,4.9014-2.0335,4.902-4.0589L48.2605,4.8712,46.3931.08,39.4788,0,37.6393,4.64,33.0237,5.9432C33.0237,7.9988,35.1418,9.3855,37.98,10.1082Z" transform="translate(-0.2035 0)"></path><path d="M85.7844,27.1239c.3669-3.2754-7.7406-3.6732-7.7406-3.6732l-.0175-.7331,6.9612-1.63c-1.8561-3.8792-9.783-.0148-9.783-.0148l.2352-7.5794c-2.4584.5-3.4974,5.8872-3.7922,7.8063l-18.8008-2.434-.0063.0086-.0049-.0121c-.1723.0613-4.0835-.512-4.2536-.44A6.6334,6.6334,0,0,1,43,21.0471a6.6334,6.6334,0,0,1-5.5819-2.6246c-.17-.0725-4.0813.5008-4.2536.44l-.0049.0121-.0063-.0086L14.3525,21.3c-.2948-1.919-1.3338-7.3064-3.7922-7.8063l.2352,7.5794s-7.9269-3.8644-9.783.0148l6.9612,1.63-.0175.7331s-8.1075.3977-7.7406,3.6732l7.46-1.109.1337.6881S.9824,29.86,3.4008,31.863L13.61,26.4,25.7,26.79l7.6789-.1708a25.3178,25.3178,0,0,0,1.4368,4.6862H36.32L43,31.2107l6.68.0951h1.504A25.3178,25.3178,0,0,0,52.6206,26.62L60.3,26.79,72.39,26.4l10.2088,5.463c2.4184-2.0028-4.4084-5.16-4.4084-5.16l.1337-.6881ZM43,27.31l-8.0613-.0951.0749-2.5811L43,24.484l7.9864.15.0749,2.5811Z" transform="translate(-0.2035 0)"></path><polygon points="51.169 38.066 50.986 34.026 50.296 34.026 42.796 34.095 35.297 34.026 34.607 34.026 34.424 38.066 42.796 37.951 51.169 38.066"></polygon><path d="M43,40.8882l-8.4961-.0877-1.58,34.8373s6.0013,1.89,6.4-2.9648c.3536-4.3076,2.5949-22.3924,2.5949-22.3924L43,50.2174l1.0811.0632S46.3224,68.3654,46.676,72.673c.3984,4.8548,6.4,2.9648,6.4,2.9648l-1.58-34.8373Z" transform="translate(-0.2035 0)"></path></svg>