<svg xmlns="http://www.w3.org/2000/svg" width="57.6313" height="74" viewBox="0 0 57.6313 74"><defs><style>.cls-1{fill:#231f20;fill-rule:evenodd;}</style></defs><path class="cls-1" d="M13.9343,28.0549a5.87,5.87,0,1,0,5.8687-5.87,5.87,5.87,0,0,0-5.8687,5.87Zm22.67.245a4.4459,4.4459,0,1,0,4.4467-4.4459A4.4466,4.4466,0,0,0,36.6044,28.3ZM41.05,29.4593Zm-1.1594-1.1654ZM41.05,27.14ZM42.21,28.3062a.4055.4055,0,0,1-.4067.4024l-.3479-.0017v.3479a.4046.4046,0,0,1-.8093,0v-.3523l-.3525-.0018a.4047.4047,0,0,1,.0043-.8094l.3481.0018v-.348a.4046.4046,0,1,1,.8093,0v.3524l.3523.0018a.4056.4056,0,0,1,.4023.4069ZM10.4089,47.4433A23.2252,23.2252,0,0,1,11.5878,41.05a16.6675,16.6675,0,0,0,14.9146-2.2281l4.37,6.9109a1.5059,1.5059,0,0,0,1.274.7037l.06-.0012a1.5029,1.5029,0,0,0,1.2781-.8l3.795-7.1326a13.703,13.703,0,0,0,12.1984.71,23.1977,23.1977,0,0,1,1.945,10.4061c-.5243,12.107-10.1306,21.4348-21.4562,20.834S9.8847,59.55,10.4089,47.4433ZM8.5452,39.6821a26.9382,26.9382,0,0,0-1.4246,7.5868C6.5123,61.3173,16.6728,73.271,29.8145,73.9681S54.1029,63.8417,54.7111,49.7933A26.9043,26.9043,0,0,0,52.37,37.5306a13.73,13.73,0,1,0-19.923-18.2262A16.6751,16.6751,0,1,0,8.5452,39.6821ZM33.5314,11.8546a1.7037,1.7037,0,0,0,1.0535-.364c.003,0,.27-.2083.8288-.5767A21.7629,21.7629,0,0,1,45.43,7.299a1.7139,1.7139,0,1,0-.2013-3.4219A24.87,24.87,0,0,0,33.7875,7.8837C26.7242.7037,16.7922.05,16.6326.005a1.7154,1.7154,0,1,0-.26,3.4208c.0022,0,.5582.04,1.5843.2225,3.09.5349,9.8753,2.3777,14.2692,7.6a1.7047,1.7047,0,0,0,1.3058.6059Zm-4.7062,24.983A16.71,16.71,0,0,0,31.78,32.6624a13.7415,13.7415,0,0,0,3.0356,4.035l-2.7794,5.2207-3.2111-5.0805Zm15.2544.0478a10.3041,10.3041,0,1,1,10.305-10.302A10.3121,10.3121,0,0,1,44.08,36.8854ZM30.1165,25.2218A13.2521,13.2521,0,1,1,16.8654,11.9686,13.2654,13.2654,0,0,1,30.1165,25.2218ZM19.8042,30.045Zm-1.99-2Zm1.9905-1.98Zm1.99,2.0007Zm-.6983.6911-.5971-.003v.597a.6947.6947,0,0,1-1.3893,0V28.746l-.6049-.0031a.6947.6947,0,0,1,.0075-1.3893l.5974.003v-.5974a.6947.6947,0,0,1,1.3893,0v.6049l.6047.0031a.6947.6947,0,0,1-.0076,1.3893Z" transform="translate(-0.1844 0)"></path></svg>