<svg xmlns="http://www.w3.org/2000/svg" width="32.443" height="77.8988" viewBox="0 0 32.443 77.8988"><path d="M4.7042,29.9194c1.915,3.4038,5.3317,4.06,8.3757.0805a.1383.1383,0,0,1,.1867-.0013.151.151,0,0,1,.0589.1772l-2.6807,6.7359a.1537.1537,0,0,0,.0719.1856,25.4288,25.4288,0,0,0,2.7206,1.466,10.7372,10.7372,0,0,0-6.6556,5.7743.3087.3087,0,0,1-.2865.1479.3609.3609,0,0,1-.2943-.1315A9.4165,9.4165,0,0,1,3.6518,38.271a70.9316,70.9316,0,0,1,1.0525-8.3516Zm23.5915,0c-1.915,3.4038-5.3317,4.06-8.3756.0805a.1383.1383,0,0,0-.1867-.0013.1511.1511,0,0,0-.0589.1772l2.6807,6.7359a.1538.1538,0,0,1-.072.1856,25.4267,25.4267,0,0,1-2.7206,1.466,10.7373,10.7373,0,0,1,6.6556,5.7743.3086.3086,0,0,0,.2865.1479.361.361,0,0,0,.2943-.1315,9.4167,9.4167,0,0,0,2.5492-6.0829,70.9239,70.9239,0,0,0-1.0525-8.3516ZM16.5,17.3331l-12.4036.0014a1.06,1.06,0,0,0-1.0494.9141L.2924,37.9155l-.01.1157c-.1,3.65,1.66,6.858,4.3853,9.6435a38.8783,38.8783,0,0,0,9.1657,6.5624v18.61H9.6992c-1.6285,0-1.8692.6145-2.1381,1.3008-.0391.1-.0838.2138-1.2039.2138a2.5642,2.5642,0,0,0-1.81.7514l-.0071.008a2.5621,2.5621,0,0,0-.7554,1.8134v.0031A1.0621,1.0621,0,0,0,4.8465,78h23.307a1.0621,1.0621,0,0,0,1.062-1.0621v-.0031a2.562,2.562,0,0,0-.7554-1.8134l-.007-.008a2.5643,2.5643,0,0,0-1.81-.7514c-1.12,0-1.1648-.1138-1.2039-.2138-.2688-.6863-.51-1.3008-2.1381-1.3008H19.1665v-18.61a38.8782,38.8782,0,0,0,9.1657-6.5624c2.7257-2.7855,4.4851-5.9937,4.3853-9.6435l-.01-.1157L29.953,18.2486a1.06,1.06,0,0,0-1.0494-.9141L16.5,17.3331Zm0,19.5592a5.7956,5.7956,0,0,1-3.3591-1.2329.1654.1654,0,0,1-.0712-.1845l2.5033-7.9865a.1588.1588,0,0,0-.1516-.2063H5.142c.1913-1.1484.3627-2.1867.4846-3.0052a.3715.3715,0,0,1,.4979-.2932c3.7291,1.3866,17.0219,1.3866,20.7509,0a.3715.3715,0,0,1,.4978.2932c.1219.8184.2933,1.8568.4846,3.0052H17.5786a.1588.1588,0,0,0-.1515.2063L19.93,35.475a.1654.1654,0,0,1-.0711.1845A5.7957,5.7957,0,0,1,16.5,36.8923Zm0,5.3677q-.1729-.0081-.3464-.0082a6.5381,6.5381,0,0,0-2.9366.6594A3.4826,3.4826,0,0,0,11.3,45.1623l-1.5014-.3632a4.9865,4.9865,0,0,1,2.7163-3.2682,8.0991,8.0991,0,0,1,3.6389-.8229q.1732,0,.3464.0068.1731-.0067.3464-.0068a8.0991,8.0991,0,0,1,3.6389.8229,4.9867,4.9867,0,0,1,2.7163,3.2682L21.7,45.1623a3.4825,3.4825,0,0,0-1.9171-2.2511,6.538,6.538,0,0,0-2.9366-.6594q-.1734,0-.3464.0082Z" transform="translate(-0.2785 -0.1012)"></path><path d="M16.5.1012a.371.371,0,0,1,.3413.2241l5.072,10.9694a.37.37,0,0,0,.2991.2218.3754.3754,0,0,0,.3414-.1486l6.7023-8.3346a.376.376,0,0,1,.4155-.1324.3669.3669,0,0,1,.2557.3533V15.3029a.3728.3728,0,0,1-.372.372H3.4444a.3727.3727,0,0,1-.372-.372V3.2543a.3669.3669,0,0,1,.2557-.3533.376.376,0,0,1,.4155.1324l6.7023,8.3346a.3754.3754,0,0,0,.3414.1486.37.37,0,0,0,.2991-.2218L16.1587.3254A.371.371,0,0,1,16.5.1012Z" transform="translate(-0.2785 -0.1012)"></path></svg>