<svg xmlns="http://www.w3.org/2000/svg" width="61.7739" height="70.6049" viewBox="0 0 61.7739 70.6049"><path d="M61.8869,33.6893C59.68,27.756,48.2045,23.2769,40.9155,22.9139c-.82-2.4822-1.7252-4.7235-2.5616-6.6037l7.3972.0269a7.7728,7.7728,0,0,0-6.3686-7.863L36.6784.429S30.6723.1976,28.8247.1976c-13.1733,0-21.543,14.3423-21.543,31.225,0,16.6614.3409,25.3019-7.1687,39.38,6.8367,0,11.3229-3.8907,14.2549-8.5873,1.6911-.01,3.3055-.09,4.8531-.2286l.0665,3.2771-3.88.1434-.7315,4.1586H41.5407l-.9586-5.0911-7.0842.2621-.7023-6.5834a19.7712,19.7712,0,0,0,7.4627-7.14,25.9037,25.9037,0,0,0,3.3076-14.0722C58.1645,34.35,46.1371,36.4836,61.8869,33.6893ZM34.2892,4.7784a1.8478,1.8478,0,0,1,.0416,3.6942A1.8478,1.8478,0,1,1,34.2892,4.7784Zm-6.74-1.0227c3.5842,0,3.8891,5.6654-.2548,5.6654C23.8018,9.4211,23.8939,3.7556,27.5495,3.7556ZM24.5927,65.0664l.06-3.898c1.0751-.2343,2.092-.52,3.0777-.8327L28.27,64.93ZM36.5874,48.8308c-3.3166,5.5752-10.0367,8.6128-19.992,9.0569a45.2287,45.2287,0,0,0,3.0983-11.8841l6.1959,6.01c6.3423-11.5645,3.9133-23.14-.6753-32.5877L27.4684,15.56l6.0484.4739C38.8138,26.4457,42.3094,39.2128,36.5874,48.8308Z" transform="translate(-0.1131 -0.1976)"></path></svg>