<svg xmlns="http://www.w3.org/2000/svg" width="96.1377" height="54" viewBox="0 0 96.1377 54"><path d="M.4312,0,23.9163,54h3.8988L4.3309,0ZM8.2306,0,31.7153,54h3.8993L12.1309,0ZM96.5688,0h-3.9L71.1353,49.5162l-1.95-4.4841L88.7694,0H84.87L67.2356,40.55l-1.95-4.4848L80.97,0h-3.9L63.3349,31.5814,58.2494,19.8875h-3.9L69.185,54h3.9007l-.001-.0013ZM38.7507,19.8875,33.6652,31.5814,19.93,0h-3.9L39.5153,54h3.8993v-.0013L48.5,42.3046,53.5855,54h3.9007L42.65,19.8875Zm7.8,17.9346-5.086,11.694L39.5153,45.032l5.0855-11.6931ZM37.5649,40.55l-1.95-4.4848L40.701,24.3722l1.9494,4.482Zm8.9857-20.6621L61.3859,54h3.8993L50.45,19.8875Z" transform="translate(-0.4312)"></path></svg>