<svg xmlns="http://www.w3.org/2000/svg" width="77" height="51.914" viewBox="0 0 77 51.914"><path d="M76.6918,35.6039C69.95,44.1432,52.0112,51.957,34.2078,51.957c-11.9057,0-23.751-3.4942-32.1452-12.602a46.7247,46.7247,0,0,1,6.099-10.93L0,20.9379l3.7989-4.0253,7.8061,7.5187a37.3289,37.3289,0,0,1,7.9082-6.1573L13.02,7.2882l4.9028-2.7645,6.35,11.45A35.2078,35.2078,0,0,1,35.3783,13.576L34.9187.2936,40.39.043l.1673,13.6288A40.9119,40.9119,0,0,1,50.749,15.94L56.076,3.6136,60.94,5.5345l-4.9833,12.64a54.3679,54.3679,0,0,1,8.82,5.5832l7.5875-9.8341L77,17.6437,69.0488,27.368A74.942,74.942,0,0,1,76.6918,35.6039ZM17.7332,26.2218a40.4594,40.4594,0,0,0-7.257,8.0533l1.63,6.7217a42.0893,42.0893,0,0,0,12.0154,5.3263C18.2914,41.4155,16.23,33.4372,17.7332,26.2218Zm30.6956-5.5165a31.6146,31.6146,0,0,0-21.6571.1437C18.3539,29.29,21.64,47.2923,38.0991,47.2923,53.2164,47.2923,56.7689,29.0842,48.4288,20.7053Zm8.6781,4.0516c1.7974,6.828.3985,14.6049-4.1572,19.9132a50.5919,50.5919,0,0,0,16.8724-9.4A59.5174,59.5174,0,0,0,57.107,24.7569ZM37.8984,41.6661c-13.306,0-12.7034-19.012-.2131-19.012C50.129,22.6541,50.0506,41.6661,37.8984,41.6661Z" transform="translate(0 -0.043)"></path></svg>