<svg xmlns="http://www.w3.org/2000/svg" width="81.8171" height="75.7211" viewBox="0 0 81.8171 75.7211"><defs><style>.cls-1{fill:#231f20;}</style></defs><path class="cls-1" d="M5.7859,7.8219H6.014V7.6695l-.2281.1525Zm60.756,24.4758.0087-.045a54.04,54.04,0,0,0-6.0988-1.0441,111.1834,111.1834,0,0,0-11.2811-.9365l.0285-.051-.38-.0175-.01.0551q-.48-.0172-.9666-.0317l.0684-.14-.1286-.1884-.1795.3219c-1.5884-.0451-3.2317-.0688-4.9151-.0688-5.2723,0-10.1531.2319-14.1767.6282l.0024-.0556-.2278-.01.0562.0821c-1.225.1228-2.3691.2609-3.4186.4125q-.2409.0348-.4736.0687l.04-.08h-.2281l.0938.0938c-2.448.3576-4.2192.6451-5.0385.8224v-.2315h-.2287v.2842c-.1847.0461-.2806.082-.2806.1064a44.3513,44.3513,0,0,0,6.116,1.0641c2.0847.301,4.5423.5491,7.2674.7291l-.0922.0845.2155.3137.1647-.2974-.0517-.0853c3.1277.201,6.6.3128,10.2609.3128a131.27,131.27,0,0,0,17.7646-1.0574c1.4518-.21,2.6906-.3974,3.666-.5561l-.0929.139.1524.3049.1356-.4758a15.0835,15.0835,0,0,0,2.2289-.451ZM42.3226,74.9155a.4522.4522,0,0,0,.2948-.6929l-.0852-.2114a.7575.7575,0,0,0-.2392.4244l.015.24.0146.24Zm2.36.3612.565-.2277a.94.94,0,0,0-.707-.1247l.142.3524Zm-1.131-.3641-.2391.4244.4381.0693.0563-.2685-.2552-.2252Zm-7.9374.1846-.4834-1.1995-.0692.4382-.0984.3676a1.0139,1.0139,0,0,0,.0159.65l.6351-.256Zm-4.1839.4017a.4522.4522,0,0,0,.2949-.6929l-.0852-.2114a.7574.7574,0,0,0-.2392.4244l.015.24.0146.24Zm2.36.3612.565-.2277a.9394.9394,0,0,0-.707-.1247l.142.3524Zm-1.131-.3641L32.42,75.92l.438.0693.0563-.2685-.2553-.2252Zm.7744-1.1325c-.2121.0855-.3245.213-.2392.4245l.2392-.4245Zm4.0492-.6374.4381.0693-.0853-.2115-.3529.1422Zm-6.8327.4469.0852.2116.1262-.2968-.2115.0852Zm30.2559-30.83h.2281L60.906,43.19v.1524Zm13.19,2.7309h.5324v-.5324h-.5324v.5324Zm4.9064-3.6125h.3049a4.0055,4.0055,0,0,0-1.0654-.9127l.7605.9127ZM76.72,45.504h.5323v-.5324H76.72v.5324Zm-.2287-1.5213.1526-.3043-.1526-.3043-.1517.3043.1517.3043Zm3.0435,0h.2281v-.3807h-.2281v.3807Zm-2.0543.761.3043-.3806h-.3043v.3806Zm3.0434-3.8044v-.38h-.2287l.2287.38Zm-1.9781,2.6628v-.228l-.1525.1519.0762.0761Zm-8.29,2.2454h.2281l-.2281-.1524v.1524Zm5.558-1.1575.1523-.3043-.1523-.3043-.2282.3043.2282.3043Zm3.93-4.9123h.5324v-.5324h-.5324v.5324ZM69.423,44.503h.3805l.2281-.0762c.2287-.0762.3043-.1519.3043-.3043H69.423v.3805ZM16.4158,7.5432l.38.0068.1131-.3631-.336.0546-.1573.3017Zm-.8163-3.7282.3359-.0547.1573-.3017-.38-.0067-.1131.3631Zm-.7438-.1194.3362-.055.0958-.2571-.2739.0105-.1582.3016Zm.8909,1.2332.3363-.0549.0957-.2572-.2739.0105-.1582.3016Zm-2.8952-2.32.3633.1137-.3121-.4321-.0513.3184ZM17.5821,6.11l.1506.0784-.0275-.1673-.1677.0272.0447.0618Zm-1.87,8.3724.4632-.2638a.4525.4525,0,0,0-.7267-.1988l.2635.4626Zm1.8562,2.1821-.0188-.34-.2447-.1231-.1516.3488.4151.1139ZM16.104,11.02l.0188-.2739-.2448-.123-.1516.3488.3776.0481Zm1.8277,8.59.1513-.3492-.34.0186-.0567.2071.245.1235ZM16.036,25.505l-.0183-.34-.2454-.1229-.019.2734.2828.19Zm.7751-14.0125.1044-.5844-.33.188.2258.3964Zm.5786,4.3982-.2076-.0567-.0192.2734.1321-.0752.0947-.1415Zm.1339-1.3016-.1129-.1982-.0568.2071.1039.0286.0658-.0375Zm.6555-3-.1128-.1981-.0568.207.1034.0288.0663-.0377Zm-.07,9.408.0942-.1414-.2736-.0195.1131.1986.0663-.0377Zm.1344-8.2189-.1506-.2644-.1987.1132.3493.1512Zm-1.28-2.2477.0849-.3115-.1981.1128.1132.1987Zm-.1758,10.606.0855-.3111-.1983.1129.1129.1982Zm1.3279,1.87.0941-.1413-.1693.0094.0089.17.0662-.0377ZM29.5136,37.6194l-.1522-.0065.1457.1587.0065-.1522Zm5.5226,4.4234c.0162-.38-.1292-.5385-.5093-.5547l-.2277-.01a.7573.7573,0,0,0,.2877.3931l.2246.0853.2247.0859Zm-2.6666-3.54.2376-.2182A2.7276,2.7276,0,0,0,31.87,37.72l.5.7829ZM30.801,39.5778l.1518.0064a1.1056,1.1056,0,0,0,.624-.3543l-.76-.0323-.0162.38Zm2.4422-3.7033-.209-.4655a.4081.4081,0,0,0-.2943-.2413l-.01.2284.0663.2312c.07.1548.1422.2342.2943.2407l.1524.0065ZM36.34,40.0425l.0259-.6087a.94.94,0,0,0-.4055.5925l.38.0162Zm-.7987.88.2879.393.2439-.37-.2213-.1622-.3106.14Zm-3.9752.3635.1587-.1453-.2349.142.2188.2376-.1425-.2344Zm-1.3308-6.3.0259-.6087-.1651.2976.1392.3111ZM31.7064,36.19l.1621-.2214-.1459-.1588-.1581.1458.142.2343Zm3.1229,3.5594c-.01.2285.06.3834.2879.3931l-.2879-.3931Zm-.8425-3.4623-.1485-.0826L33.68,36.35l.1491.0821.1582-.1453Zm-.1231,2.8884-.1452-.1588-.1588.1458.1491.0825.1549-.07Zm-.8472,2.02.2441-.37-.2279-.01-.0162.38ZM28.9027,30.5116l.0826-.1486-.2284-.01.1458.1584Zm.41,8.2417.1522.0065.0162-.38-.1684.3737Zm4.1936,3.4524.2279.01-.2182-.2375-.01.2278ZM77.0086,31.751l.1229-.09-.2129-.0328.09.1229Zm-7.0757-.0017a.4522.4522,0,0,0,.7443.1147l.1839-.1348a.7574.7574,0,0,0-.47-.1271l-.2287.0738-.2291.0734Zm4.2941,1.097-.0491.3189a2.727,2.727,0,0,0,.9284-.02l-.8793-.299Zm.5526-1.82-.1226.09a1.1058,1.1058,0,0,0-.2657.6666l.6132-.45-.225-.3069ZM70.239,32.9395l-.47-.1269.041.4416.2741-.0117.1552-.303Zm7.8526,1.3187.36.4914-.057-.3355-.3032-.1559ZM79.6778,36.68l-.3064.2246.1352.1844.3064-.2246-.1352-.1844Zm-8.15-3.27c-.1351-.1844-.2864-.2619-.47-.127l.47.127ZM72.64,33.255l.2127.0332.0328-.2131-.1679.0288-.0775.1512Zm-.6011-2.1065.0409.4417.1839-.1348-.2249-.3068ZM48.44,75.0742a.4521.4521,0,0,0,.2948-.6929L48.65,74.17a.7578.7578,0,0,0-.2392.4244l.0151.24.0146.24Zm2.123-3.89.2969.1263a2.728,2.728,0,0,0,.21-.9046l-.5068.7783Zm2.322-3.3966.565-.2277-.3392-.0275-.2258.2553Zm-.49,1.8375.2686.0562.0844-.1985-.1981-.0838-.1548.226Zm3.2279-2.7768.142.3524.2121-.0855-.142-.3524-.2121.0855Zm-5.0562,5.9745.0846-.1979-.1984-.0844-.0136.17.1273.1124Zm-2.19.0626.4381.0693-.0853-.2115-.3528.1422ZM56.41,64.7265l.1695.0139-.0855-.2121-.084.1982Zm-.6364-.1537.2822-.1137-.0853-.2116-.197.3253ZM47.66,73.7483l.0852.2116.1262-.2968-.2114.0852ZM27.0824,37.89l.3042-.2281-.761-.7609.4567.989Zm-.23,4.0866H26.32a1.6974,1.6974,0,0,0,.5323.5329v-.5329Zm-8.3736-3.892.3042-.2281-.7609-.761.4568.989ZM59.05,47.613h.5324v-.5324H59.05v.5324Zm-7.7779,4.0924-.8072-.4591a1.0793,1.0793,0,0,0,.1943.4406.4177.4177,0,0,0,.3994.1916l.2135-.1731Zm-9.7495-.0973-.2555-.2817-.6867.8286.9422-.5469Zm-2.3293-.393-.0142-.1514-.5654-.3291.05.53.53-.05Zm17.133-.5063-.779-.1561.2773.5093.5017-.3532Zm-16.4326,2.275.05.53a1.696,1.696,0,0,0,.4809-.58l-.5305.05Zm10.3491-4.2925-.3243-.1986-.2064.2483.2419.1305.2887-.18Zm-8.7912,4.6046-.3172-.1227-.2136.1724.2489.2059.2818-.2556Zm2.7247-3.5408-.0355-.3787a.5719.5719,0,0,0-.4946.4283l.53-.05ZM43.88,52.3041l-.2413-.13-.2134.1724.249.2064.2058-.2489Zm1.7964-.3974-.3172-.1228-.2128.1725.2412.1305.2887-.18Zm-3.1693,2.0545-.0214-.2276-.4548.0426.0214.2276.4547-.0426Zm.1611-1.5438-.0212-.227-.303.0283.0212.2271.303-.0285ZM38.72,54.316l-.0214-.2276-.2276.0212.0214.2277.2276-.0213Zm6.6942-5.2118-.1441.09.1725.2129.0617-.1588-.09-.1442Zm1.7772,2.6607-.137.166.1582.0612.0546-.2342-.0759.0071Zm-6.1654-3.014-.1588-.0611.0212.227.1376-.1659ZM39.98,51.447l-.1661-.1371-.0617.1585.159.0615.0688-.0828Zm4.9757-1.5354.0284.303.0615-.159-.09-.1441Zm.0354,2.8238c-.0831-.0689-.0831-.0689-.1589-.0618l-.1441.09.1583.0617.1447-.09Zm.3476,1.2663.0212.2271.0617-.1582-.083-.0689ZM54.32,48.4081l.295-.4431a1.6947,1.6947,0,0,0-.7386.148l.4437.2951Zm-1.27-3.5856.127.3585.3161-.0636-.1054-.2532-.3377-.0417Zm.255,2.3628.1693.295.2745,0-.064-.3167-.38.0213Zm-2.5116-.7573.1058.2528.2743,0-.0636-.3171-.3166.064Zm-3.4973-.7015.1692.2951.274,0-.1053-.2532-.3378-.0417Zm5.607.2773-.1266.19.38.253.1266-.19-.38-.253Zm-1.0965,1.0986-.1264.19.2534.1687.1265-.19-.2534-.1685ZM56.07,48.1111l-.1266.19.19.1267.1266-.19-.19-.1266Zm-5.8681-2.717c.0212.1059.0212.1059.0846.1481l.1687.0206-.0841-.1476-.1692-.0211Zm.5266-1.2029.1264-.19-.1475.0841.0211.1057Zm-6.903.3677.05.53a1.6971,1.6971,0,0,0,.481-.58l-.5305.05Zm1.0506-.3908-.3242-.1988-.2057.2484.2412.1305.2887-.18Zm.5072.7029-.3172-.1227-.2135.1724.249.2059.2818-.2556Zm2.4286-.9916-.2413-.13-.2135.1724.249.2064.2058-.2488Zm1.7964-.3974-.3172-.1229-.2128.1725.2412.1305.2887-.18ZM42.69,45.4143l-.0213-.2276-.4548.0426.0214.2276.4547-.0426Zm3.91-1.4216-.0212-.227-.303.0283.0212.2271.303-.0284Zm-6.14-.4805-.0213-.2276-.2276.0212.0213.2277.2276-.0213Zm8.4626.7984c-.0831-.0689-.0831-.0689-.1589-.0618l-.1441.09.1583.0617.1447-.09ZM47.0777,43.198l.0212.2271.0617-.1582-.0829-.0689ZM37.4958,28.7l.0425.0625a.4068.4068,0,0,0,.36.1228L37.4958,28.7Zm6.501.7485.1988-.3245a.5714.5714,0,0,0-.6527.0464l.4539.2781Zm-10.519-.3118.1519-.228-.1519-.2281-.2286.2281.2286.228Zm-1.29.88.1517-.228-.1517-.2281-.1524.2281.1524.228Zm-4.0325.533h.2287v-.2287h-.2287V30.55Zm8.7864,3.7839-.2783.4539a1.6954,1.6954,0,0,0,.7325-.1756l-.4543-.2784ZM38.3438,37.87l-.14-.3536-.3136.0754.1148.2491.339.0292Zm9.97.8994-.14-.3534-.3141.075.1154.2494.339.029ZM38.0006,35.5179l-.18-.2884-.2743.01.0758.3141.3787-.0355Zm6.496,1.18.1987-.3244a.5719.5719,0,0,0-.6527.0461l.454.2782Zm-.427-1.7787-.1151-.2486-.2739.01.075.314.3141-.0757ZM42.7308,38.56l-.1152-.2487-.2741.01.0754.3145.3138-.0758Zm6.528-.4609-.7639-.6463.3751.408.075.3141.3139-.0759Zm-4.8521,1.22-.18-.2885-.2738.0105.1149.249.3391.029Zm-5.96-2.6356.1194-.1949-.3894-.2387-.1194.1951.3894.2386ZM39.501,35.545l.1192-.1945-.2595-.1591-.1192.1945.2594.1591Zm6.2448.1338.1192-.1945-.2594-.159-.1192.1945.2594.159ZM35.203,34.6961l.1194-.1949-.1949-.12-.1195.195.195.1194Zm10.6744,2.2232-.1693-.0143.01.2737.1446-.09.0143-.1695Zm-.1736,3.195-.2091.0506.09.1438.1842-.1547-.0651-.04Zm-.678-2.8241-.159.2595.1446-.09.0144-.1692Zm-1.6652,2.2808c-.0251-.1049-.0251-.1049-.09-.1448l-.1694-.0142.09.1443.17.0146Zm-.4813,1.2219-.1192.1945.1443-.09-.0251-.1049ZM23.5458,43.9107a.643.643,0,0,0,.469.1093,1.4405,1.4405,0,0,0-.6294-1.011l-.1779.5519a.3877.3877,0,0,0,.3383.35Zm14.1626,2.4672-.8072-.4591a1.0792,1.0792,0,0,0,.1943.4406.4177.4177,0,0,0,.3994.1916l.2135-.1731Zm-6.8174.6384-.2555-.2816-.6867.8286.9422-.5469Zm-2.3293-.393-.0142-.1514-.5655-.3291.05.53.53-.05Zm12.3486.3733-.779-.1561.2773.5093.5017-.3532ZM29.2622,48.392l.05.53a1.6958,1.6958,0,0,0,.4809-.58l-.53.05ZM32.505,50.38l-.3243-.1988-.2057.2484.2412.1305.2887-.18Zm5.3363-5.8484-.3243-.1986-.2063.2483.2418.1305.2888-.18ZM30.82,48.7041l-.3172-.1227-.2136.1724.249.2059.2818-.2556Zm-2.6486-3.8015-.0354-.3789a.5714.5714,0,0,0-.4945.4286l.53-.05ZM29.41,42.1964l-.0355-.3788a.572.572,0,0,0-.4946.4283l.53-.05Zm2.7261,1.8-.2413-.13-.2129.1725.2483.2064.2059-.249Zm1.1123,3.7164-.2413-.13-.2135.1724.249.2064.2058-.2488Zm4.9474-4.2839-.9989-.059.5449.1016.2484.2064.2056-.249Zm-3.151,3.8864-.3172-.1228-.2128.1725.2412.1305.2887-.18ZM31.8758,49.37l-.0213-.2276-.4548.0426.0213.2276.4548-.0426Zm.1611-1.5438-.0212-.227-.303.0283.0212.2272.303-.0284Zm1.8966-4.227-.0212-.2272-.303.0283.0212.2271.303-.0283Zm-5.845,6.1254-.0213-.2276-.2276.0212.0214.2277.2276-.0214Zm6.6942-5.2118-.1441.09.1725.2129.0617-.1588-.09-.1442ZM36.56,47.1732l-.137.166.1582.0611.0546-.2342-.0759.0071Zm-6.1655-3.014-.1588-.0612.0213.227.1375-.1659Zm-1.0465,2.6961-.166-.1371-.0617.1585.159.0615.0688-.0828ZM34.3236,45.32l.0284.303.0614-.1589-.09-.1441Zm.0354,2.8238c-.0831-.0689-.0831-.0689-.1589-.0618l-.1441.09.1584.0617.1447-.09Zm.3476,1.2663.0212.2271.0617-.1582-.0829-.0689ZM21.2179,34.6969a.6432.6432,0,0,0-.1526.4568,1.44,1.44,0,0,0,1.0653-.5324l-.5329-.2286a.3876.3876,0,0,0-.38.3042Zm20.0715-7.3623-.1429.4657a.97.97,0,0,0,.6543.0144l.2942-.1083.2944-.1084-1.1-.2634ZM63.8087,42.7009l-.3043-.38a.9692.9692,0,0,0-.38.5324l-.0762.3042-.0763.3043.8372-.7605Zm-2.4466-2.7816h.3049a4.0053,4.0053,0,0,0-1.0654-.9127l.76.9127Zm-39.0033.3315h.5322V39.1855h-.3043l-.228,1.0653Zm-.8367-1.8256.5324-.761a1.0821,1.0821,0,0,0-.4568.1525.4177.4177,0,0,0-.2281.38l.1525.2287Zm32.8238-9.6-.1525-.2286-.2281-.2281a1.0124,1.0124,0,0,0-.5323-.228c0,.4561.228.6847.6085.6847ZM51.0268,57.2391c.5329,0,.7609-.3043.7609-.8367a.4171.4171,0,0,0-.4566.3043l-.152.2281-.1523.3043ZM21.1416,31.0834l.3042-.2281-.761-.761.4567.989ZM57.113,63.4777a.55.55,0,0,0-.3043.4562,1.0125,1.0125,0,0,0,.6086-.228l.3042-.1525.2287-.228h-.3043a1.1008,1.1008,0,0,0-.5329.1523ZM55.48,36.97h.3805l.2281-.0762c.2287-.0762.3043-.1519.3043-.3043H55.48V36.97Zm.4348,7.5658a.6574.6574,0,0,0-.2281.4562.6052.6052,0,0,0,.6848-.6843,1.2278,1.2278,0,0,0-.4566.2281ZM59.08,42.9622h.5324V42.43H59.08v.5324ZM2.2864,10.3324c-.3805,0-.6085.2281-.6085.6847.3806,0,.6085-.228.6085-.6847Zm19.8442,18.963h.152l.38-.5323h-.5324v.5323ZM49.074,35.0088l-.0972.8026L49.1054,36l-.0314-.9911ZM62.96,34.5173l-.6085-.5324h-.2281l.8366.5324ZM7.84,6.9091h.38V6.68l-.0756-.2281A.5969.5969,0,0,0,7.84,6.148v.7611ZM20.6093,38.9575l.2281-.7611-.533.2287.3049.5324Zm-3.71-9.4807h-.5324a1.6977,1.6977,0,0,0,.5324.5329v-.5329ZM48.7444,55.1847h.4567v-.4561h-.4567v.4561ZM58.9613,29.0626l.228-.3043-.228-.3043-.1525.3043.1525.3043Zm-8.8019.1356-.3373.0456-.1656.2973.38.0171.1228-.36Zm13.79,9.96.1523-.3043-.1523-.3043-.2282.3043.2282.3043ZM4.0359,10.9409l.1525-.3043-.1525-.3042-.2281.3042.2281.3043Zm13.9866,21.93.2281-.3043-.2281-.228-.1525.228.1525.3043Zm5.3253,5.8583.228-.3043-.228-.2287-.1524.2287.1524.3043Zm40.2967-.9406.2287-.3043-.2287-.228-.1518.228.1518.3043ZM52.2444,58l.2282-.3043-.2282-.2287-.1523.2287L52.2444,58ZM48.212,55.7177c.0762.0757.1524.0757.2281.1519l.3043.1524-.1519-.3043c-.0762-.0762-.0762-.1524-.1525-.2287l-.2281.2287ZM19.8483,31.35,20,31.0455l-.1517-.2287-.2282.2287.2282.3043ZM58.8515,41.4409l.1526-.3043-.1526-.3043-.1517.3043.1517.3043Zm-2.13-.3806h.7611l-.7611-.38v.38ZM23.88,29.0673h.3805a.5711.5711,0,0,0-.3805-.5323v.5323Zm-.76,5.3254h.38a.5722.5722,0,0,0-.38-.5324v.5324Zm36.721-4.7439.2281-.2287-.2281-.2281-.1518.2281.1518.2287ZM18.0225,24.1982l.2281-.228-.2281-.2287L17.87,23.97l.1525.228ZM20.6093,33.86l.1517-.2281-.1517-.2287-.2287.2287.2287.2281Zm31.0563,2.7882-.2748.0027-.1024.2545.3168.06.06-.3173Zm8.4794-.9135.1525-.2287-.1525-.228-.2282.228.2282.2287Zm-35.7319,3.45.1519-.989-.1519.533-.2286.2281.2286.228Zm-3.5757-3.5.1519-.3043-.1519-.228-.1525.228.1525.3043ZM3.5036,11.4739l.1524-.3048-.1524-.2282-.1519.2282.1519.3048Zm1.5213,0,.1525-.3048-.1525-.2282-.1519.2282.1519.3048ZM58.8515,40.0713c.2287-.0764.3043-.2281.3043-.5324h-.3043v.5324ZM61.667,28.8879c0-.0764-.0763-.2281-.3049-.3043l-.2281-.0762-.2281-.0762.7611.4568Zm-1.0654,2.0543h.5324a1.6241,1.6241,0,0,0-.5324-.3043v.3043ZM54.2982,59.75l.1525-.228-.1525-.2281-.1518.2281.1518.228ZM39.3109,55.1847l.3043-.4561h-.3043v.4561ZM65.1666,31.7027l.5322-.5324c-.3805,0-.5322.1517-.5322.456v.0764ZM58.8515,38.778l.1526-.2282-.1526-.1523L58.7,38.55l.1517.2282ZM42.3538,59.2935h.3043v-.3043h-.3043v.3043ZM6.547,6.9091h.228V6.5286H6.547v.3805Zm46.6552,22.7-.1285-.1884-.3145.2145.1285.1883.3145-.2144ZM61.895,41.4409h.2281V41.06H61.895v.3806Zm-18.78,12.2986v.2282l.152-.1519.1523-.3043v-.0763l-.3043.3043Zm19.3126-16.483-.2281-.2281-.1524.0757.3043.2287.0762-.0762ZM24.6411,34.9256h.2281v-.3043h-.2281v.3043ZM51.16,36.7168l-.1285-.1883L50.78,36.7l.1284.1886.2514-.1715Zm9.2141-1.4384h.2281v-.3043h-.2281v.3043ZM41.3648,58.5325V58l-.2281.228.2281.3043ZM59.8407,42.2019l.3043-.3805h-.3043v.3805ZM50.2794,37.317a.2811.2811,0,0,0-.191-.146c-.1061-.02-.169.023-.2116-.0394l.2141.3139.1885-.1285Zm10.0942-3.1038a.2809.2809,0,0,0,.2281-.0756c.0763-.0764.0763-.1526.1519-.1526h-.38v.2282ZM52.7768,59.75h.2282v-.228h-.2282v.228Zm-.9891-1.4452v.152l.3043-.38L52.0158,58l-.2281.3041ZM23.6521,35.686l-.0763-.1519-.228.1519.1523.0764.152-.0764Zm37.33-6.9506-.6086.1525.1519.1523c.0762,0,.0762-.0761.0762-.1523l.3806-.1525ZM44.94,54.4243h-.3042l.1525.1519.1518-.1519ZM62.884,36.8l.3043-.3043H62.884V36.8Zm-5.52-7.7372-.0762-.0762.1519-.1524-.76.0762.76.1524Zm7.1938,4.9223h-.0756a.4075.4075,0,0,0-.3043.2282l.38-.2282ZM10.9593,3.7895l-.1523-.152-.152.2281h.152l.1523-.0761ZM62.884,38.3974v-.38h-.2286l.2286.38ZM55.4617,28.3016l-.2287-.152-.0763.152.1523.0761.1526-.0761ZM11.72,2.7247V2.4966l-.1518.1519.0761.0762ZM39.8433,57.7715l-.1518-.152v.2281l.1518-.0761ZM60.906,41.06v-.228l-.1524.1519.0762.0761ZM56.8087,61.804l.1525-.1525h-.2281l.0756.1525ZM20.8373,37.2074l-.1525-.1519-.0756.1519.2281.0762v-.0762Zm.9889-7.1509.152-.1525-.152-.0762L21.75,29.98l.0761.0762Zm31.0794,6.115-.1687.0229.1284.1884.04-.2113Zm6.935.8569.0761-.1524h-.228l.1518.1524ZM54.5263,58.9891l.3043-.2286h-.3043v.2286Zm-10.65-.2286H44.18l-.3042-.2281v.2281ZM48.1885,35.06l-.38-.0171.1286.1885.2514-.1713ZM63.4163,33.757l.2282-.3043h-.2282v.3043Zm-5.5537,5.5538h.2286v-.1525h-.2286v.1525ZM13.2418,1.5076V1.2032h-.2287l.2287.3043ZM22.891,35.1537h-.3043l.1524.0761.1518-.0761Zm-2.8148-.2281c.0763-.0762.0763-.0762.0763-.1525l-.0763-.1519L20,34.7731l.0763.1525ZM49.7334,57.2391V57.011l-.0757.0757.0757.1524Zm-3.26-27.37-.1283-.1885-.1889.1289.3172.06Zm18.9973,5.8661h.2281v-.2287l-.2281.2287ZM7.84,8.05l.2282-.2281H7.84V8.05ZM18.783,35.1537h-.2281l.1518.0761.0763-.0761ZM39.2385,72.6764a.4522.4522,0,0,0,.2949-.6929l-.0852-.2114a.7574.7574,0,0,0-.2393.4244l.0151.24.0145.24Zm2.1231-3.89.2968.1263a2.726,2.726,0,0,0,.21-.9045l-.5068.7782Zm2.7543-.29.3377-.3825a.4082.4082,0,0,0,.0983-.3677l-.212.0854-.1832.1559a.3192.3192,0,0,0-.0977.3675l.057.1414Zm.9006-1.4294.3389.0272.1548-.2261-.297-.1268-.1967.3258Zm-1.3329-1.6776.565-.2277-.3392-.0275-.2259.2553Zm-.49,1.8375.2686.0562.0844-.1985-.1981-.0837-.1548.226ZM46.422,64.45l.1421.3524.2121-.0855-.142-.3524-.2121.0855Zm-5.18,7.0909c-.2121.0855-.3245.213-.2392.4245l.2392-.4245Zm.124-1.1163.0846-.1979-.1984-.0844-.0136.17.1274.1124Zm-2.19.0626.4381.0694-.0852-.2115-.3529.1422ZM45.16,62.7437l.1981.0838.0841-.1975-.1694-.014-.1128.1278Zm2.0475-.4151.1695.0139-.0855-.2121-.084.1982Zm-.6364-.1537.2823-.1137-.0853-.2115-.197.3253ZM38.4583,71.35l.0853.2116.1262-.2968-.2115.0852ZM8.0684,10.3324l.1517-.0762-.1517-.0757-.0763.1519ZM7.0792,5.5395h.2282l-.2282-.1519v.1519Zm5.075-.0723a1.6213,1.6213,0,1,1-1.6213,1.6213,1.6213,1.6213,0,0,1,1.6213-1.6213ZM69.2818,34.23A27.4208,27.4208,0,0,1,51.3233,53.7064a.5329.5329,0,0,0-.2084.8824l5.6938,5.6938L58.6963,62.17a1.57,1.57,0,0,1,.1278.1445l.0107.0133a2.21,2.21,0,0,1-.1385,2.9771l-4.035,4.035.0508-.0742-.2971-.1268-.1967.3258.2946.0236-.7467.7467a.2331.2331,0,0,0-.0125-.0911l-.212.0854-.1832.1559a.32.32,0,0,0-.1011.3587L48.29,75.7111a2.2261,2.2261,0,0,1-1.5675.6494H41.1993a1.5508,1.5508,0,1,1,0-3.1017h4.9364a.5148.5148,0,0,0,.3768-.1561l2.6053-2.6053a1.7634,1.7634,0,0,0,.4559.2646l-.2069-.5135,5.0739-5.0739.12.0506.0841-.1975-.0524-.0043.9091-.909a.5339.5339,0,0,0,0-.7536l-8.3936-8.3937a.5177.5177,0,0,0-.454-.15q-.3326.0487-.6674.0893a1.53,1.53,0,0,0,.02-.2536.5092.5092,0,0,0-.5324.3043l-.0067.0073q-1.2578.1284-2.5439.141l.2137-.1333-.3242-.1988-.2057.2484.1566.0847-.0941,0q-.2619,0-.5228-.005a.5335.5335,0,0,0-.457.8243l-.02.02.2286.3042.0336-.0672,1.3862,1.3862-.0506.0507.1523.152v-.1009l4.5,4.5a1.57,1.57,0,0,1,.1278.1445l.0107.0133a2.21,2.21,0,0,1-.1385,2.9771l-1.2979,1.2979-.1649-.0344-.1546.2266.1054.0218-2.354,2.354-.19-.0808-.0132.17.08.0341-1.1,1.1-.1086-.2695-.0692.4382-.0034.0125-2.1375,2.1374-.044-.0388-.1067.19-2.8482,2.8481a2.2261,2.2261,0,0,1-1.5675.6494H30.4216a1.5508,1.5508,0,0,1,0-3.1017H35.358a.5147.5147,0,0,0,.3768-.1561l8.9885-8.9884a.5338.5338,0,0,0,0-.7536L40.8627,59.5l.274-.5872-.3349.5263L35.63,54.267a.51.51,0,0,0-.2357-.137A27.4289,27.4289,0,0,1,15.2608,27.6979V20.6933l.0367-.0209-.0367-.0645V12.113l.6437-.3666.2635.4626-.2826-.1892.019-.2734.3969-.226-.3969.226-.6437.3666V6.8476a3.1078,3.1078,0,0,0-4.496-2.7792l-.0335-.05-.3043.2281.0113.0114A3.1194,3.1194,0,0,0,9.4811,5.264L9.438,5.2352l-.3805-.2281-.2287.4562.4507.2049a3.0992,3.0992,0,0,0-.2316,1.1794L9.0409,8.3942l-.06-.04v.2286H9.04l-.01,2.1681c.0034.8531-.2859,1.5475-1.139,1.5509l-.2359.0012.1087-.1449-.2281-.3043-.1525.3043.0731.1459-5.6126.029a1.7436,1.7436,0,0,1-.207-.0112l.117-.0875H1.2574A1.7536,1.7536,0,0,1,.1,10.76,1.7062,1.7062,0,0,1,.4338,9.5559a1.796,1.796,0,0,1,.9168-.6415L4.2645,8.025V8.05h.2281V7.9554l1.0762-.3285a.5261.5261,0,0,0,.3773-.51v-.27a6.1877,6.1877,0,0,1,.4953-2.4337L7.536,4.55a.2311.2311,0,0,1,0-.3043l-1.0805.1353a6.209,6.209,0,0,1,11.907,2.4662V26.82l-.0357-.0354-.2286.228.2286.2287.0357-.0359v.4921q0,.6005.029,1.1941a.5328.5328,0,0,0,.71.4764,28.911,28.911,0,0,1,5.3847-1.225A134.24,134.24,0,0,1,42.6872,27.05,134.24,134.24,0,0,1,60.888,28.1434q.5828.0842,1.133.1784l.4827.3381.32-.1922a14.4,14.4,0,0,1,5.8748,2.1382.5123.5123,0,0,0,.3318.116H70.949l-.1078.079.3188.049-.0938-.128h2.5907a8.2619,8.2619,0,0,1,7.3387,4.4755l-.0078.0514.037.0057a8.281,8.281,0,0,1,.5936,5.896l-.0295-.0589-.2282.3043.1309.1745a8.2568,8.2568,0,0,1-13.4125,3.48,1.5477,1.5477,0,1,1,2.096-2.2777A5.1517,5.1517,0,1,0,76.24,34.5174l.1749.0269.0323-.2126-.2573-.0943.0111.2576a5.127,5.127,0,0,0-2.5444-.6714H69.7993a.5275.5275,0,0,0-.5176.4062Z" transform="translate(-0.0915 -0.6395)"></path></svg>