<svg xmlns="http://www.w3.org/2000/svg" width="53.2837" height="60" viewBox="0 0 53.2837 60"><defs><style>.cls-1{fill:#231f20;}</style></defs><path class="cls-1" d="M11.9431,35.4078l-.0237,0-.0237,0H5.46v3.871H39.2878a2.7528,2.7528,0,0,1,2.3871,1.38L52.0321,55.687a2.7448,2.7448,0,0,1-4.5173,3.1191l-9.6627-14.02H14.6729V57.2465A2.7538,2.7538,0,0,1,11.9194,60H2.7062A2.7538,2.7538,0,0,1-.0473,57.2465V48.2429a2.7535,2.7535,0,0,1,5.507,0v6.25H9.1659V44.7858h-6.46A2.7538,2.7538,0,0,1-.0473,42.0323v-9.378a2.7538,2.7538,0,0,1,2.7535-2.7535h6.46V2.7535A2.7538,2.7538,0,0,1,11.9194,0h24.44A16.0268,16.0268,0,0,1,51.9154,10.5954,19.7049,19.7049,0,0,1,53.2365,17.7h-.0107a19.4048,19.4048,0,0,1-1.3376,7.1265c-2.3557,5.94-7.7272,10.5817-16.2531,10.5817Zm2.73-29.9008V29.9008H35.6351c5.8978,0,9.5748-3.1131,11.1545-7.0968A13.8939,13.8939,0,0,0,47.74,17.7h-.0107a14.217,14.217,0,0,0-.9338-5.1253A10.73,10.73,0,0,0,36.3592,5.507ZM5.46,25.87a2.7535,2.7535,0,1,1-5.507,0V3.4995A2.7538,2.7538,0,0,1,2.7062.7459H5.4671a2.7535,2.7535,0,0,1,0,5.507H5.46V25.87Z" transform="translate(0.0473)"></path></svg>