<svg xmlns="http://www.w3.org/2000/svg" width="126.2963" height="48" viewbox="0 0 126.2963 48"><defs><style>.cls-1{fill:#231f20;}.cls-2{fill:#fff;}</style></defs><path class="cls-1" d="M1.1019,0C3.9908,26.9057,31.1521,48,64.25,48s60.2592-21.0943,63.1481-48Z" transform="translate(-1.1019)"></path><path class="cls-2" d="M63.4888,21.041l-5.7241-5.7241a.4835.4835,0,0,1,0-.6943l1.28-1.2808a.4846.4846,0,0,1,.6943,0l4.0967,4.0967,4.0957-4.0967a.4846.4846,0,0,1,.6943,0l1.2813,1.2808a.4846.4846,0,0,1,0,.6943L64.1826,21.041a.4829.4829,0,0,1-.6938,0Z" transform="translate(-1.1019)"></path><path class="cls-2" d="M63.4888,32.54l-5.7241-5.7246a.4824.4824,0,0,1,0-.6934l1.28-1.2812a.4846.4846,0,0,1,.6943,0l4.0967,4.0967,4.0957-4.0967a.4846.4846,0,0,1,.6943,0l1.2813,1.2813a.4835.4835,0,0,1,0,.6934L64.1826,32.54a.4841.4841,0,0,1-.6938,0Z" transform="translate(-1.1019)"></path></svg>