<svg xmlns="http://www.w3.org/2000/svg" width="155.2077" height="81.0008" viewBox="0 0 155.2077 81.0008"><g><g><path d="M44.9671,30.0393a2.0642,2.0642,0,1,1,.001,0ZM40.029,42.2782a2.0644,2.0644,0,1,1,.0006,0Zm-5.21-9.0528a2.0642,2.0642,0,1,1,0,.001Zm0,19.3137a2.0643,2.0643,0,1,1,.0008,0ZM30.69,43.8376a2.0648,2.0648,0,1,1,2.0647-2.0649v0A2.0643,2.0643,0,0,1,30.69,43.8376Zm-2.7409,15.064a2.0647,2.0647,0,1,1,2.0649-2.0645h0a2.0644,2.0644,0,0,1-2.0641,2.0647h-.0006ZM26.56,68.5053a2.0641,2.0641,0,1,1,.0012,0ZM28.6251,29.096A2.0647,2.0647,0,1,1,26.56,31.1607h0a2.0642,2.0642,0,0,1,2.0637-2.0647Zm9.3392-7.1037a2.39,2.39,0,1,1-.0008,0h.0008Zm5.5728-9.7434a2.0643,2.0643,0,1,1-.0008,0Zm5.2676,5.6141a2.0637,2.0637,0,1,1-.002,0ZM46.18,39.2771v-.0015l-.0012-.0084q-.0292-.2054-.0662-.4057l.0168-.0556L45.9171,36.44a5.9421,5.9421,0,0,1,1.3283-4.2976l5.2147-6.343a.3841.3841,0,0,1,.0289-.0339l.06-.0722c.089-.1013.1781-.2024.2719-.3035v-.0022q.3646-.4155.7412-.835c.1275-.142.2527-.2842.38-.4262.1757-.2019.3561-.4041.539-.6062q.8952-1.0031,1.8361-2.0551l.1179-.1323c.38-.4257.7652-.8519,1.1454-1.28.1372-.1516.2743-.3032.4091-.4548.13-.1468.26-.2936.39-.438.45-.5029.8928-.9986,1.3235-1.4872.1732-.1947.3441-.3874.51-.5775.296-.3321.5848-.6618.8663-.9816.1949-.2264.3874-.4454.5751-.6618.38-.4382.7412-.8545,1.0757-1.2518.0674-.0794.1324-.1588.1973-.2356.07-.0794.1324-.1562.1949-.231s.1251-.1492.1853-.2238q.8013-.96,1.3067-1.6342c.06-.0792.1155-.1562.1684-.2284.0289-.0385.0578-.077.0842-.1155.0529-.0746.1035-.1468.1516-.2142q.0549-.079.1028-.1535c.0351-.0532.0683-.1049.0992-.154h0l.0149-.025a2.9572,2.9572,0,0,0,.218-.4117v-.0026c.0087-.0212.0161-.0414.0226-.0606l.001-.0029.0014-.0053q.01-.03.0173-.0611V10.44c.0048-.0219.0072-.0409.01-.058a.0668.0668,0,0,0,.0024-.0216.1127.1127,0,0,0-.1179-.1275c-.0361-.0027-.0794-.0027-.1251-.0048-2.2861-.0674-15.3,1.0658-15.3,1.0658s-1.942-.4134-4.2377-.9433-5.9462-.1754-7.5946-.7073C36.4845,9.114,32.5982,7.29,31.1255,6.9362c-1.47-.354-5.71-2.7072-6.0641-3.4676C24.71,2.71,24.65.9323,23.4732.8146a4.7233,4.7233,0,0,0-2.5917,1.0008,57.9792,57.9792,0,0,0-5.59-1.5915,13.74,13.74,0,0,0-4.9451,0c-1.059.3539-1.942,2.178-2.5315,2.5919-.59.4115-3.7684.2936-4.8874.5294A3.2034,3.2034,0,0,0,.7494,4.404c-.5294.6473,0,2.5315,0,2.5315A16.2609,16.2609,0,0,1,.22,10.3213a2.8779,2.8779,0,0,0,.2936,2.7358c.6786,1.2371,1.9444,1.5018,3.7973,1.562a8.6459,8.6459,0,0,1,4.4855,1.5016c.6281.5486,5.65,5.1015,6.9064,6.6707,1.2561,1.5712,8.8916,8.93,9.421,14.4646.5294,5.5323.3537,11.6564.5872,13.4226.2358,1.7665-2.2957,8.0665-3.6481,12.7156a25.2193,25.2193,0,0,1-1.8358,4.6929l-.0007.0012a4.26,4.26,0,0,0-5.578,2.1657l-.8013,1.8a1.99,1.99,0,0,0,1.0061,2.62l7.8887,3.51a2.7855,2.7855,0,0,0,3.6661-1.408l2.1482-4.8275v-.001c.9625-1.5829,6.9037-11.3509,9.7594-16.4511a22.14,22.14,0,0,0,1.5257-2.9938,2.5945,2.5945,0,0,1,.1877-.51,53.9692,53.9692,0,0,1,3.1933-4.7478l.2286-.3417c.0553-.0818.1083-.1636.1636-.243.0216-.0289.0409-.06.06-.0891.0488-.0746.0967-.1516.1453-.2262h0c.0315-.0486.0628-.0977.0941-.1463l.0785-.1211c.0551-.0873.11-.172.1629-.2546l.0084-.0132c.0623-.1011.1273-.2017.1872-.3051.0193-.0332.0409-.0647.06-.0984.0438-.0712.0847-.1422.1268-.2132.0443-.0741.0888-.1478.1323-.2221l.02-.0339c.1131-.1925.2214-.385.3273-.58.0123-.0219.0236-.0433.0354-.065l.0457-.0842.008-.0144c.065-.1179.1251-.2358.1853-.354v-.0022c.0337-.0674.0674-.1348.1011-.2.0361-.065.0674-.1324.1011-.2l.0193-.0407.0024-.0062a8.3742,8.3742,0,0,0,.4-.9878l.01-.0265c.02-.0647.0392-.1278.058-.1913.0065-.0219.0139-.0441.02-.0662l.0065-.0253c.039-.1388.0715-.2743.1006-.4086l.0024-.0113.0014-.0072q.0278-.1314.05-.26l.0111-.0662a6.4435,6.4435,0,0,0,.0816-1.015V40.302a7.4078,7.4078,0,0,0-.0763-1.0261Z" transform="translate(-0.0022 0.0004)"></path><path d="M146.9884,61.7315a2.0647,2.0647,0,1,1,2.0647-2.0647v0a2.0643,2.0643,0,0,1-2.0639,2.0647h-.0008Zm-9.1443,0a2.0647,2.0647,0,1,1,2.0647-2.0647h0a2.0642,2.0642,0,0,1-2.0637,2.0647Zm-9.6256-3.8454a2.0647,2.0647,0,1,1,2.0647-2.0647h0a2.0641,2.0641,0,0,1-2.0635,2.0647Zm-8.1814-5.347a2.0647,2.0647,0,1,1,2.0647-2.0647h0a2.0642,2.0642,0,0,1-2.0637,2.0647Zm-6.9063-10.5857a2.0648,2.0648,0,1,1,2.0647-2.0649h0a2.0643,2.0643,0,0,1-2.0637,2.0649Zm-2.4789,19.0127a2.0646,2.0646,0,1,1,2.0647-2.0645h0a2.0642,2.0642,0,0,1-2.064,2.0644ZM106.5225,48.41a2.0648,2.0648,0,1,1,2.0646-2.065v0a2.0643,2.0643,0,0,1-2.0639,2.0647h-.0007Zm-2.931,7.4117a2.0647,2.0647,0,1,1,2.0647-2.0647h0a2.0636,2.0636,0,0,1-2.0625,2.0647Zm-4.127-19.7373a2.0644,2.0644,0,1,1,0,.0006Zm-1.4751-6.0449a2.0647,2.0647,0,1,1,2.0647-2.0647h0A2.0658,2.0658,0,0,1,97.9894,30.0393Zm-1.02,15.8629a2.0647,2.0647,0,1,1,2.0647-2.0647h0A2.0642,2.0642,0,0,1,96.97,45.9022ZM92.84,15.0956A2.0647,2.0647,0,1,1,94.9044,17.16h0A2.0643,2.0643,0,0,1,92.84,15.0964Zm12.8165,2.7673a2.0647,2.0647,0,1,1-2.0647,2.0647h0a2.0642,2.0642,0,0,1,2.0637-2.0647Zm4.9957,12.1764a2.0647,2.0647,0,1,1-2.0647-2.0647h0a2.0643,2.0643,0,0,1,2.0647,2.0639ZM90.3395,36.0842a2.0647,2.0647,0,1,1,2.0647-2.0647h0A2.0642,2.0642,0,0,1,90.34,36.0842ZM87.2136,22.6758A2.0647,2.0647,0,1,1,89.2783,24.74h0a2.0643,2.0643,0,0,1-2.0647-2.0639ZM82.2471,42.9906a2.0647,2.0647,0,1,1,2.0647-2.0647h0A2.0658,2.0658,0,0,1,82.2471,42.9906Zm-4.13-10.8866a2.0647,2.0647,0,1,1,2.0647-2.0647h0A2.0658,2.0658,0,0,1,78.1171,32.104Zm-6.5-8.047a2.0647,2.0647,0,1,1,2.0647-2.0647h0a2.0641,2.0641,0,0,1-2.0634,2.0648h-.0013Zm0,21.8452a2.0647,2.0647,0,1,1,2.0647-2.0647h0a2.0642,2.0642,0,0,1-2.0637,2.0647Zm-4.1294-9.8181a2.0647,2.0647,0,1,1,2.0647,2.0647h0a2.0644,2.0644,0,0,1-2.0647-2.0641ZM79.5613,13.8323a2.0647,2.0647,0,1,1-2.0647,2.0648,2.0647,2.0647,0,0,1,2.0647-2.0648ZM61.6432,33.2254a2.0642,2.0642,0,1,1,.001,0ZM57.5138,42.99a2.0642,2.0642,0,1,1,.001,0ZM153.8225,51.17c-3.1813-1.2971-5.4192-.3538-6.1243.5871-.7075.9433-1.6484,5.0631-4.4759,3.6505-2.8251-1.4123-9.1828-2.3535-12.1282-3.6505-2.943-1.2946-13.4229-11.5269-14.2459-15.8293-.8254-4.305-3.5326-13.7237-5.7705-16.5512-2.2379-2.8251-4.9451-6.5334-8.7135-7.3588-3.766-.823-4.12-1.7855-10.9106-2.2572-6.7908-.4692-9.1058.2358-12.7563,0-1.8024-.1155-5.07-.0409-7.9146.065A7.1716,7.1716,0,0,1,69.17,14.6171c-.5174.7219-1.2561,1.65-2.2572,2.8371-1.7471,2.0671-4.0692,4.6612-6.531,7.4093-3.2125,3.59-7.881,8.8026-9.52,11.0574.0361.1516.0746.31.1107.45a12.6829,12.6829,0,0,1-.7171,9.3751,33.8776,33.8776,0,0,1-2.4112,4.1128,49.2173,49.2173,0,0,0,8.4416-.9265c5.6526-1.2561,14.6,0,20.2522-1.2561s9.7339-3.4532,13.8151-1.1A8.8892,8.8892,0,0,1,92.6588,48.54c2.2765,2.6444,3.4026,6.2347,6.3312,7.4572,3.766,1.569,9.1058,6.75,9.2622,7.6932.07.4134-.7715,1.5868-1.6036,2.782l-.7922-.1434a4.26,4.26,0,0,0-4.9365,3.4238l-.3509,1.9393a1.99,1.99,0,0,0,1.5993,2.3058l8.4965,1.5372a2.7851,2.7851,0,0,0,3.227-2.2382l.8333-4.6058h0l.0024-.0053c1.3163-2.0717,1.53-6.2516,1.53-6.2516s.6281-4.0837-.9409-5.809c-1.5714-1.7276-1.2561-5.3371-1.2561-5.3371s6.9063,7.0625,10.6748,8.6337c3.7684,1.5692,22.49,7.6141,24.2564,5.73s4.9452-5.1088,4.8273-7.7946,3.1861-5.3925.0024-6.6871Z" transform="translate(-0.0022 0.0004)"></path><path d="M89.2783,61.7315a2.0647,2.0647,0,1,1,2.0647-2.0647v0a2.0643,2.0643,0,0,1-2.0639,2.0647h-.0008Zm.977-7.4189a9.9052,9.9052,0,0,0-2.546-3.15,2.428,2.428,0,0,0-1.3331-.3345,8.7664,8.7664,0,0,0-1.74.2214,6.2238,6.2238,0,0,1,2.108,2.435c.4716,1.6486-1.8048,3.8456-2.71,5.1812a8.7512,8.7512,0,0,1-2.74,1.8642l-1.12-.4983a4.26,4.26,0,0,0-5.6071,2.1543l-.8011,1.8a1.99,1.99,0,0,0,1.0061,2.62l7.8886,3.51a2.7853,2.7853,0,0,0,3.6661-1.408l1.4795-3.3249a9.0064,9.0064,0,0,1,2.7832-2.2437,20.3108,20.3108,0,0,0,4.3147-3.386,17.7853,17.7853,0,0,1-4.6492-5.4409Z" transform="translate(-0.0022 0.0004)"></path><path d="M59.03,66.84a2.0647,2.0647,0,1,1,2.0647-2.0647h0A2.0641,2.0641,0,0,1,59.0311,66.84Zm-4.4157-6.2107a2.0643,2.0643,0,1,1,.0008,0ZM65.4333,71.41l-.6016-1.338-.0289-.0628-.4813-1.0752a17.8214,17.8214,0,0,1-.6954-1.9444c-.6281-2.2-1.8048-3.7686-1.9636-5.7323-.1179-1.4727-.5439-5.6021-.7484-7.5681a22.1562,22.1562,0,0,0-3.48.4115A53.1232,53.1232,0,0,1,48.0347,55.15l-.7989.0291a14.7321,14.7321,0,0,0,2.0238,3.097c1.7278,1.9612,1.5714,3.2968,4.1607,6.4371a18.21,18.21,0,0,1,3.4556,6.2781,2.1863,2.1863,0,0,0,.5511.823l-1.415.5922a4.2647,4.2647,0,0,0-2.2813,5.5588l.76,1.8168a1.9891,1.9891,0,0,0,2.5965,1.066l7.9652-3.328a2.7847,2.7847,0,0,0,1.492-3.6337Z" transform="translate(-0.0022 0.0004)"></path></g></g></svg>