<svg xmlns="http://www.w3.org/2000/svg" width="100.116" height="69.0285" viewBox="0 0 100.116 69.0285"><g><g><path d="M93.6537,63.1438a.1554.1554,0,0,1-.1553.1555H66.4729a.1553.1553,0,0,1-.1555-.1551V43.503a.1553.1553,0,0,1,.1551-.1555H93.4983a.1554.1554,0,0,1,.1555.1553v19.641Zm-58.43,0a.1553.1553,0,0,1-.1551.1555H8.0429a.1554.1554,0,0,1-.1555-.1553V43.503a.1554.1554,0,0,1,.1553-.1555H35.0683a.1553.1553,0,0,1,.1555.1551V63.1438Zm37.18-61.9523A3.1092,3.1092,0,0,0,67.4651,4.97q.0221.0289.0449.0572L92.8789,37.3954a.1554.1554,0,0,1-.1224.2514H61.309a9.8281,9.8281,0,0,0-6.1087,2.07,8.301,8.301,0,0,1-5.6509,1.7982,8.1169,8.1169,0,0,1-4.5312-1.7494,9.8416,9.8416,0,0,0-6.04-2.1185H7.359a.1554.1554,0,0,1-.1223-.2514L32.6059,5.0275a3.1092,3.1092,0,1,0-4.8816-3.852l-.0126.016L.6615,35.7038a3.0947,3.0947,0,0,0-.6557,2.1035c.0328.5441.0714,1.0878.0714,1.633V68.8445A.1554.1554,0,0,0,.2325,69H37.7408a5.2932,5.2932,0,0,0,5.2933-5.2931v0a7.0248,7.0248,0,0,1,14.0475-.2429q.0021.1214,0,.2429A5.2932,5.2932,0,0,0,62.3747,69H99.8831a.1554.1554,0,0,0,.1555-.1553V39.44c0-.5452.0385-1.0889.0714-1.633a3.0947,3.0947,0,0,0-.6557-2.1035l-27.05-34.512Z" transform="translate(0.0001 0.0285)"></path></g></g></svg>