<svg xmlns="http://www.w3.org/2000/svg" width="112.3495" height="100.7532" viewbox="0 0 112.3495 100.7532"><g><g><path d="M.1367,76.1194c1.2931,4.0389,11.5144,4.7161,26.1961,2.4591a25.7207,25.7207,0,0,1-1.763-3.3731q-2.1013.3-4.0813.5157c-13.0769,1.42-15.994-.585-16.34-.8851.11-.4466,1.32-3.7714,12.796-10.2041,1.77-.991,3.6637-1.9877,5.661-2.9787.0654-.0327.133-.0673.2-.0981q2.0551-1.0189,4.26-2.03A236.2432,236.2432,0,0,1,53.3775,49.448,237.3035,237.3035,0,0,1,80.65,42.3861c.4789-.0885.9561-.177,1.4276-.2636q1.752-.32,3.4443-.5869c2.2-.3541,4.32-.6408,6.3383-.8582,13.0769-1.422,15.994.583,16.34.8832-.11.4464-1.3181,3.7734-12.796,10.2041q-1.7347.97-3.6194,1.9473a25.47,25.47,0,0,1,.52,3.77c13.2674-6.6789,21.199-13.1635,19.9078-17.2043-1.4006-4.3737-13.2886-4.8028-29.9772-1.83-.5542.1-1.116.202-1.6816.31q-1.81.3406-3.6831.7331A258.8519,258.8519,0,0,0,28.4631,54.9685q-2.5749,1.1286-4.9723,2.2667c-.4907.2328-.9736.4657-1.4528.6966C7.5814,64.9532-1.2178,71.8823.1367,76.1194Z" transform="translate(0.0002)"></path><path d="M23.9622,64.99c.14-.0674.279-.1366.42-.21.7023-.3463,1.4316-.7023,2.18-1.0583.7-.3348,1.4143-.6677,2.1455-1.0044a232.7356,232.7356,0,0,1,25.7594-9.8616,232.6267,232.6267,0,0,1,26.7-6.9137q1.0163-.1934,2.0089-.3714c.0539.21.1039.4176.1539.6273q.1533.6494.2771,1.2988a30.7894,30.7894,0,0,1,.52,4.4238c.0115.2752.0212.5522.0271.8274a30.932,30.932,0,0,1-.2773,4.7662,31.2457,31.2457,0,0,1-50.8319,19.887,30.7005,30.7005,0,0,1-3.2017-3.048,30.2991,30.2991,0,0,1-2.1012-2.563c-.1541-.21-.3061-.4214-.4524-.635-.1326-.19-.2636-.3812-.3906-.5753-.0654-.0981-.1308-.1963-.1943-.2963a30.745,30.745,0,0,1-2.1436-3.9061c-.1212-.26-.2386-.5253-.3521-.7928C24.1238,65.3881,24.043,65.188,23.9622,64.99Z" transform="translate(0.0002)"></path><path d="M21.6916,53.4022A31.2348,31.2348,0,0,1,78.1557,34.9087c-.6871.1366-1.3991.2809-2.15.4368A263.1,263.1,0,0,0,26.7619,51.0932c-1.7376.762-3.4461,1.5394-5.07,2.309Z" transform="translate(0.0002)"></path><path d="M22.038,57.9318c.4791-.2309.9621-.4637,1.4528-.6966q2.3927-1.1343,4.9723-2.2667A258.8517,258.8517,0,0,1,76.87,39.49q1.8732-.39,3.6831-.7331a31.53,31.53,0,0,1,1.5238,3.3654c-.4714.0866-.9486.1751-1.4276.2636a237.3035,237.3035,0,0,0-27.272,7.0618A236.2438,236.2438,0,0,0,27.0659,59.525q-2.2023,1.01-4.26,2.03a31.1676,31.1676,0,0,1-.7678-3.6233Z" transform="translate(0.0002)"></path><path d="M21.6916,53.4022A31.2348,31.2348,0,0,1,78.1557,34.9087c-.6871.1366-1.3991.2809-2.15.4368A263.1,263.1,0,0,0,26.7619,51.0932c-1.7376.762-3.4461,1.5394-5.07,2.309Z" transform="translate(0.0002)"></path><path d="M22.038,57.9318c.4791-.2309.9621-.4637,1.4528-.6966q2.3927-1.1343,4.9723-2.2667A258.8517,258.8517,0,0,1,76.87,39.49q1.8732-.39,3.6831-.7331a31.53,31.53,0,0,1,1.5238,3.3654c-.4714.0866-.9486.1751-1.4276.2636a237.3035,237.3035,0,0,0-27.272,7.0618A236.2438,236.2438,0,0,0,27.0659,59.525q-2.2023,1.01-4.26,2.03a31.1676,31.1676,0,0,1-.7678-3.6233Z" transform="translate(0.0002)"></path></g></g><circle cx="78.1561" cy="4.5" r="4.5"></circle><circle cx="31.3494" cy="16.0629" r="3.1258"></circle><circle cx="39.4445" cy="9" r="1.5629"></circle><circle cx="87.1561" cy="86.75" r="4.5"></circle><circle cx="70.0994" cy="99.1903" r="1.5629"></circle></svg>